<svg id="Layer_1" data-name="Layer 1" xmlns="http://www.w3.org/2000/svg" viewBox="0 0 59.53 59.53"><title>Artboard 2 copy 3</title><line x1="25.81" y1="31.1" x2="20.98" y2="31.1" fill="none" stroke="#1d1d1b" stroke-linecap="round" stroke-linejoin="round" stroke-width="0.75"/><line x1="25.81" y1="29.92" x2="22.85" y2="29.92" fill="none" stroke="#1d1d1b" stroke-linecap="round" stroke-linejoin="round" stroke-width="0.75"/><line x1="25.81" y1="32.28" x2="22.85" y2="32.28" fill="none" stroke="#1d1d1b" stroke-linecap="round" stroke-linejoin="round" stroke-width="0.75"/><line x1="33.71" y1="31.1" x2="38.55" y2="31.1" fill="none" stroke="#1d1d1b" stroke-linecap="round" stroke-linejoin="round" stroke-width="0.75"/><line x1="33.71" y1="32.28" x2="36.68" y2="32.28" fill="none" stroke="#1d1d1b" stroke-linecap="round" stroke-linejoin="round" stroke-width="0.75"/><line x1="33.71" y1="29.92" x2="36.68" y2="29.92" fill="none" stroke="#1d1d1b" stroke-linecap="round" stroke-linejoin="round" stroke-width="0.75"/><path d="M31.64,36h0a9.11,9.11,0,0,0-3.75,0h0A2.08,2.08,0,0,1,25.81,34V28.24a2.08,2.08,0,0,1,2.08-2.07h0a9.07,9.07,0,0,0,3.67,0l.08,0a2.07,2.07,0,0,1,2.07,2.07V34A2.07,2.07,0,0,1,31.64,36Z" fill="none" stroke="#1d1d1b" stroke-linecap="round" stroke-linejoin="round" stroke-width="2"/><path d="M26,34.9,24.4,36.1a37.44,37.44,0,0,1-19.55,7h0a3.15,3.15,0,0,1-3.43-2.92c0-2.29.35-6.89.35-9.18s-.4-6.81-.35-9.08a3.16,3.16,0,0,1,3.43-2.92h0A37.45,37.45,0,0,1,24.4,26.11L26,27.3" fill="none" stroke="#1d1d1b" stroke-linecap="round" stroke-linejoin="round" stroke-width="2"/><path d="M33.48,27.3l1.65-1.19a37.42,37.42,0,0,1,19.54-7.06h0A3.16,3.16,0,0,1,58.11,22c0,2.3-.35,6.89-.35,9.18s.4,6.81.35,9.08a3.15,3.15,0,0,1-3.44,2.92h0a37.41,37.41,0,0,1-19.54-7l-1.65-1.2" fill="none" stroke="#1d1d1b" stroke-linecap="round" stroke-linejoin="round" stroke-width="2"/><path d="M41.49,22.39A48.31,48.31,0,0,0,29.76,21.1,48.37,48.37,0,0,0,18,22.39" fill="none" stroke="#1d1d1b" stroke-linecap="round" stroke-linejoin="round" stroke-width="2"/><path d="M12.83,20.45c1.14-2.31,8.29-4.08,16.93-4.08s15.8,1.77,16.93,4.08" fill="none" stroke="#1d1d1b" stroke-linecap="round" stroke-linejoin="round" stroke-width="2"/></svg>