<svg id="Layer_1" data-name="Layer 1" xmlns="http://www.w3.org/2000/svg" viewBox="0 0 59.53 59.53"><title>Artboard 2 copy</title><line x1="29.76" y1="36.11" x2="29.76" y2="23.92" fill="none" stroke="#1d1d1b" stroke-linecap="round" stroke-linejoin="round" stroke-width="2"/><path d="M27.72,41.11l-1,5.07h0a10.11,10.11,0,0,0,6.11,0h0l-1-5.07Z" fill="none" stroke="#1d1d1b" stroke-linecap="round" stroke-linejoin="round" stroke-width="2"/><path d="M31.8,41.11v-3a2,2,0,0,0-4.08,0v3Z" fill="none" stroke="#1d1d1b" stroke-linecap="round" stroke-linejoin="round" stroke-width="2"/><line x1="20.72" y1="35.13" x2="20.72" y2="26.89" fill="none" stroke="#1d1d1b" stroke-linecap="round" stroke-linejoin="round" stroke-width="2"/><path d="M18.68,40.13l-1,5.06h0a9.93,9.93,0,0,0,6.1,0h0l-1-5.06Z" fill="none" stroke="#1d1d1b" stroke-linecap="round" stroke-linejoin="round" stroke-width="2"/><path d="M22.76,40.13v-3a2,2,0,0,0-4.08,0v3Z" fill="none" stroke="#1d1d1b" stroke-linecap="round" stroke-linejoin="round" stroke-width="2"/><line x1="38.81" y1="35.13" x2="38.81" y2="26.89" fill="none" stroke="#1d1d1b" stroke-linecap="round" stroke-linejoin="round" stroke-width="2"/><path d="M36.77,40.13l-1,5.06h0a10,10,0,0,0,6.11,0h0l-1-5.06Z" fill="none" stroke="#1d1d1b" stroke-linecap="round" stroke-linejoin="round" stroke-width="2"/><path d="M40.85,40.13v-3a2,2,0,0,0-4.08,0v3Z" fill="none" stroke="#1d1d1b" stroke-linecap="round" stroke-linejoin="round" stroke-width="2"/><path d="M12.34,22.69s-5,10.44-3.59,18.63c1.92,11.14,14,15,19,16.1a8.61,8.61,0,0,1,2.05.69h0a8.61,8.61,0,0,1,2.05-.69c5-1.12,17-5,19-16.1,1.41-8.19-3.58-18.63-3.58-18.63" fill="none" stroke="#1d1d1b" stroke-linecap="round" stroke-linejoin="round" stroke-width="2"/><path d="M29.85,4.14H29.7c-17.39.11-18.44,18.55-18.44,18.55l6.72.08s1.13-10.91,11.8-10.9,11.79,10.9,11.79,10.9l6.72-.08S47.24,4.25,29.85,4.14Z" fill="none" stroke="#1d1d1b" stroke-linecap="round" stroke-linejoin="round" stroke-width="2"/><line x1="29.78" y1="4.14" x2="29.78" y2="1.42" fill="none" stroke="#1d1d1b" stroke-linecap="round" stroke-linejoin="round" stroke-width="2"/><line x1="28.75" y1="1.42" x2="30.8" y2="1.42" fill="none" stroke="#1d1d1b" stroke-linecap="round" stroke-linejoin="round" stroke-width="2"/><line x1="29.78" y1="46.65" x2="29.78" y2="50.73" fill="none" stroke="#1d1d1b" stroke-linecap="round" stroke-linejoin="round" stroke-width="0.75"/><line x1="28.51" y1="46.65" x2="28.51" y2="48.77" fill="none" stroke="#1d1d1b" stroke-linecap="round" stroke-linejoin="round" stroke-width="0.75"/><line x1="31.04" y1="46.65" x2="31.04" y2="48.77" fill="none" stroke="#1d1d1b" stroke-linecap="round" stroke-linejoin="round" stroke-width="0.75"/><line x1="20.72" y1="45.67" x2="20.72" y2="49.75" fill="none" stroke="#1d1d1b" stroke-linecap="round" stroke-linejoin="round" stroke-width="0.75"/><line x1="19.45" y1="45.67" x2="19.45" y2="47.78" fill="none" stroke="#1d1d1b" stroke-linecap="round" stroke-linejoin="round" stroke-width="0.75"/><line x1="21.99" y1="45.67" x2="21.99" y2="47.78" fill="none" stroke="#1d1d1b" stroke-linecap="round" stroke-linejoin="round" stroke-width="0.75"/><line x1="38.81" y1="45.67" x2="38.81" y2="49.75" fill="none" stroke="#1d1d1b" stroke-linecap="round" stroke-linejoin="round" stroke-width="0.75"/><line x1="37.54" y1="45.67" x2="37.54" y2="47.78" fill="none" stroke="#1d1d1b" stroke-linecap="round" stroke-linejoin="round" stroke-width="0.75"/><line x1="40.07" y1="45.67" x2="40.07" y2="47.78" fill="none" stroke="#1d1d1b" stroke-linecap="round" stroke-linejoin="round" stroke-width="0.75"/><circle cx="29.78" cy="8.03" r="2.03" fill="none" stroke="#1d1d1b" stroke-miterlimit="10" stroke-width="2"/></svg>