<?xml version="1.0" encoding="utf-8"?>
<!-- Generator: Adobe Illustrator 24.0.3, SVG Export Plug-In . SVG Version: 6.00 Build 0)  -->
<svg version="1.1" id="Layer_1" xmlns="http://www.w3.org/2000/svg" xmlns:xlink="http://www.w3.org/1999/xlink" x="0px" y="0px"
	 viewBox="0 0 59.5 59.5" style="enable-background:new 0 0 59.5 59.5;" xml:space="preserve">
<style type="text/css">
	.st0{fill:none;stroke:#1D1D1B;stroke-width:2;stroke-linecap:round;stroke-linejoin:round;stroke-miterlimit:10;}
	.st1{fill:none;stroke:#1D1D1B;stroke-width:0.75;stroke-linecap:round;stroke-linejoin:round;stroke-miterlimit:10;}
	.st2{fill:none;stroke:#1D1D1B;stroke-width:2;stroke-miterlimit:10;}
	.st3{fill:none;stroke:#1D1D1B;stroke-width:0.75;stroke-miterlimit:10;}
	.st4{fill:none;stroke:#1D1D1B;stroke-width:0.7368;stroke-linecap:round;stroke-linejoin:round;stroke-miterlimit:10;}
</style>
<g>
	<ellipse class="st0" cx="22.6" cy="23.7" rx="5.2" ry="1.5"/>
	<ellipse class="st0" cx="22.6" cy="24.5" rx="21.2" ry="6.3"/>
	<path class="st0" d="M43.7,24.5v11.7c0,3.5-9.5,6.3-21.2,6.3S1.4,39.7,1.4,36.2V24.5"/>
	<line class="st1" x1="9.9" y1="29.6" x2="9.9" y2="36.5"/>
	<line class="st1" x1="15" y1="30.4" x2="15" y2="37.3"/>
	<line class="st1" x1="12.5" y1="30.1" x2="12.5" y2="33.2"/>
	<line class="st1" x1="4.8" y1="28" x2="4.8" y2="34.9"/>
	<line class="st1" x1="7.4" y1="28.9" x2="7.4" y2="32"/>
	<line class="st1" x1="20.1" y1="30.8" x2="20.1" y2="37.7"/>
	<line class="st1" x1="17.6" y1="30.6" x2="17.6" y2="33.8"/>
	<line class="st1" x1="22.6" y1="30.8" x2="22.6" y2="33.9"/>
	<line class="st1" x1="35.2" y1="29.6" x2="35.2" y2="36.5"/>
	<line class="st1" x1="30.1" y1="30.4" x2="30.1" y2="37.3"/>
	<line class="st1" x1="32.7" y1="30.1" x2="32.7" y2="33.2"/>
	<line class="st1" x1="40.3" y1="28" x2="40.3" y2="34.9"/>
	<line class="st1" x1="37.8" y1="28.9" x2="37.8" y2="32"/>
	<line class="st1" x1="25" y1="30.8" x2="25" y2="37.7"/>
	<line class="st1" x1="27.6" y1="30.6" x2="27.6" y2="33.8"/>
	<path class="st0" d="M42.6,22.5c0,0,5.7-0.4,7.8-0.7c6.4-1,7.8-4.8,7.8-4.8v13.3c0,0-0.8,4.2-7.8,5.5c-1.7,0.3-6.5,0.8-6.5,0.8"/>
	<line class="st0" x1="55.2" y1="20.1" x2="55.2" y2="34"/>
</g>
</svg>
