<svg id="Layer_1" data-name="Layer 1" xmlns="http://www.w3.org/2000/svg" viewBox="0 0 59.53 59.53"><title>Artboard 2 copy 5</title><path d="M38.78,5.36V1.42H25V13.47h1V34.91l-8.38,8.38a6.39,6.39,0,0,0,0,9h0a6.27,6.27,0,0,0,2.44,1.51" fill="none" stroke="#1d1d1b" stroke-linecap="round" stroke-linejoin="round" stroke-width="2"/><line x1="36.36" y1="17.41" x2="36.36" y2="22.16" fill="none" stroke="#1d1d1b" stroke-linecap="round" stroke-linejoin="round" stroke-width="0.74"/><line x1="35.2" y1="17.41" x2="35.2" y2="20.32" fill="none" stroke="#1d1d1b" stroke-linecap="round" stroke-linejoin="round" stroke-width="0.74"/><line x1="37.52" y1="17.41" x2="37.52" y2="20.32" fill="none" stroke="#1d1d1b" stroke-linecap="round" stroke-linejoin="round" stroke-width="0.74"/><path d="M43.73,5.36H29V17.41h1V38.86l-8.38,8.38a6.36,6.36,0,0,0,0,9h0a6.37,6.37,0,0,0,9,0L41.1,45.76a1.85,1.85,0,0,0,.14-.14l.08-.08h0a5.27,5.27,0,0,0,1.41-3.59V17.41h1Z" fill="none" stroke="#1d1d1b" stroke-linecap="round" stroke-linejoin="round" stroke-width="2"/><path d="M38.73,48.19a5.63,5.63,0,0,1-1.66-4h0a5.68,5.68,0,0,1,5.66-5.66h0" fill="none" stroke="#1d1d1b" stroke-linecap="round" stroke-linejoin="round" stroke-width="2"/><line x1="28.99" y1="17.41" x2="43.73" y2="17.41" fill="none" stroke="#1d1d1b" stroke-linecap="round" stroke-linejoin="round" stroke-width="2"/><line x1="25.04" y1="13.47" x2="28.53" y2="13.47" fill="none" stroke="#1d1d1b" stroke-linecap="round" stroke-linejoin="round" stroke-width="2"/></svg>