<svg id="Layer_1" data-name="Layer 1" xmlns="http://www.w3.org/2000/svg" viewBox="0 0 59.53 59.53"><title>Artboard 2</title><line x1="4.85" y1="23.37" x2="54.52" y2="23.37" fill="none" stroke="#1d1d1b" stroke-miterlimit="10" stroke-width="2"/><line x1="5.42" y1="45.15" x2="54.11" y2="45.15" fill="none" stroke="#1d1d1b" stroke-miterlimit="10" stroke-width="2"/><line x1="55.44" y1="27.37" x2="4.18" y2="27.37" fill="none" stroke="#1d1d1b" stroke-miterlimit="10" stroke-width="0.75"/><line x1="55.6" y1="37.15" x2="3.92" y2="37.15" fill="none" stroke="#1d1d1b" stroke-miterlimit="10" stroke-width="0.75"/><line x1="45.32" y1="4.85" x2="45.32" y2="54.1" fill="none" stroke="#1d1d1b" stroke-miterlimit="10" stroke-width="2"/><line x1="23.54" y1="4.8" x2="23.54" y2="54.41" fill="none" stroke="#1d1d1b" stroke-miterlimit="10" stroke-width="2"/><line x1="27.54" y1="4.32" x2="27.54" y2="55.21" fill="none" stroke="#1d1d1b" stroke-miterlimit="10" stroke-width="0.75"/><line x1="37.32" y1="4.32" x2="37.32" y2="55.21" fill="none" stroke="#1d1d1b" stroke-miterlimit="10" stroke-width="0.75"/><polygon points="48.66 1.42 43.94 6.49 39.21 1.42 34.49 6.49 29.76 1.42 25.04 6.49 20.32 1.42 15.59 6.49 10.87 1.42 7.08 7.08 1.42 10.87 6.49 15.59 1.42 20.32 6.49 25.04 1.42 29.76 6.49 34.49 1.42 39.21 6.49 43.94 1.42 48.66 7.08 52.44 10.87 58.11 15.59 53.04 20.32 58.11 25.04 53.04 29.76 58.11 34.49 53.04 39.21 58.11 43.94 53.04 48.66 58.11 52.44 52.44 58.11 48.66 53.04 43.94 58.11 39.21 53.04 34.49 58.11 29.76 53.04 25.04 58.11 20.32 53.04 15.59 58.11 10.87 52.44 7.08 48.66 1.42" fill="none" stroke="#1d1d1b" stroke-linecap="round" stroke-linejoin="round" stroke-width="2"/></svg>