<?xml version="1.0" encoding="utf-8"?>
<!-- Generator: Adobe Illustrator 25.2.3, SVG Export Plug-In . SVG Version: 6.00 Build 0)  -->
<svg version="1.1" id="Layer_1" xmlns="http://www.w3.org/2000/svg" xmlns:xlink="http://www.w3.org/1999/xlink" x="0px" y="0px"
	 viewBox="0 0 59.5 59.5" style="enable-background:new 0 0 59.5 59.5;" xml:space="preserve">
<style type="text/css">
	.st0{fill:none;stroke:#1D1D1B;stroke-width:0.75;stroke-linecap:round;stroke-linejoin:round;}
	.st1{fill:none;stroke:#1D1D1B;stroke-width:2;stroke-linecap:round;stroke-linejoin:round;}
</style>
<line class="st0" x1="55.6" y1="34.7" x2="50.9" y2="35.8"/>
<line class="st0" x1="55.4" y1="33.6" x2="52.5" y2="34.2"/>
<line class="st0" x1="55.9" y1="35.9" x2="53" y2="36.5"/>
<path class="st1" d="M52.4,19.1c0,0-6.7,8-19.3-0.2c0,0-13.4,12.6-26.3,12.9c0,0-3-0.1-3.5,3.7c0,0,13.4,8.4,39-1.2
	c0,0,11.8-1.8,13.3-3.2C55.7,31.1,56.1,24.7,52.4,19.1z"/>
<path class="st1" d="M55.7,31.1c0,0,1,3.9,0.9,6.6c0,0-5.9,2.2-13.2,2.5l-0.1-2.5c0,0-1,0.1-2.9,0.8S24.7,45.4,4.9,40
	c-1.2-0.3-2.1-1.4-2.1-2.7v-1.8"/>
<line class="st1" x1="29.6" y1="21" x2="33" y2="25"/>
<line class="st1" x1="26.4" y1="23.3" x2="28.9" y2="26.5"/>
<line class="st1" x1="23.1" y1="25.4" x2="26.4" y2="29.4"/>
</svg>
