<?xml version="1.0" encoding="utf-8"?>
<!-- Generator: Adobe Illustrator 24.0.3, SVG Export Plug-In . SVG Version: 6.00 Build 0)  -->
<svg version="1.1" id="Layer_1" xmlns="http://www.w3.org/2000/svg" xmlns:xlink="http://www.w3.org/1999/xlink" x="0px" y="0px"
	 viewBox="0 0 59.5 59.5" style="enable-background:new 0 0 59.5 59.5;" xml:space="preserve">
<style type="text/css">
	.st0{fill:#FFFFFF;}
	.st1{fill:#DCDCDC;}
</style>
<circle class="st0" cx="29.8" cy="29.8" r="26.2"/>
<g>
	<path class="st1" d="M30,58.2c-15.6,0-28.3-12.7-28.3-28.3C1.7,14.3,14.4,1.5,30,1.5s28.3,12.7,28.3,28.3
		C58.3,45.5,45.6,58.2,30,58.2z M30,5C16.3,5,5.2,16.2,5.2,29.9S16.3,54.7,30,54.7s24.8-11.1,24.8-24.8S43.7,5,30,5z"/>
</g>
<g>
	<polygon class="st1" points="25.9,41.8 23.4,39.3 32.8,29.9 23.4,20.5 25.9,18 37.8,29.9 	"/>
</g>
</svg>
