<svg id="Layer_1" data-name="Layer 1" xmlns="http://www.w3.org/2000/svg" viewBox="0 0 59.53 59.53"><title>Artboard 2 copy 2</title><path d="M20.11,2.34h0a50.36,50.36,0,0,1,19.19,0h0" fill="none" stroke="#1d1d1b" stroke-linecap="round" stroke-linejoin="round" stroke-width="2"/><line x1="29.54" y1="1.97" x2="29.54" y2="6.81" fill="none" stroke="#1d1d1b" stroke-linecap="round" stroke-linejoin="round" stroke-width="0.75"/><line x1="28.36" y1="1.97" x2="28.36" y2="4.94" fill="none" stroke="#1d1d1b" stroke-linecap="round" stroke-linejoin="round" stroke-width="0.75"/><line x1="30.73" y1="1.97" x2="30.73" y2="4.94" fill="none" stroke="#1d1d1b" stroke-linecap="round" stroke-linejoin="round" stroke-width="0.75"/><path d="M20.17,2.65l9.59,7.9-11.4,4.53.72-12A.67.67,0,0,1,20.17,2.65Z" fill="none" stroke="#1d1d1b" stroke-linecap="round" stroke-linejoin="round" stroke-width="2"/><path d="M39.36,2.65l-9.6,7.9,11.41,4.53-.72-12A.67.67,0,0,0,39.36,2.65Z" fill="none" stroke="#1d1d1b" stroke-linecap="round" stroke-linejoin="round" stroke-width="2"/><path d="M41,6.81l8.39,3.93a2.64,2.64,0,0,1,1.69,2.58L49.27,52.8a5.34,5.34,0,0,1-5.36,5.31H15.62a5.34,5.34,0,0,1-5.36-5.31L8.46,13.32a2.62,2.62,0,0,1,1.69-2.58l8.39-3.93" fill="none" stroke="#1d1d1b" stroke-linecap="round" stroke-linejoin="round" stroke-width="2"/><line x1="29.76" y1="10.55" x2="29.76" y2="58.11" fill="none" stroke="#1d1d1b" stroke-linecap="round" stroke-linejoin="round" stroke-width="2"/></svg>