<svg id="Layer_1" data-name="Layer 1" xmlns="http://www.w3.org/2000/svg" viewBox="0 0 59.53 59.53"><title>Artboard 2 copy 4</title><line x1="29.76" y1="6.89" x2="29.76" y2="11.73" fill="none" stroke="#1d1d1b" stroke-linecap="round" stroke-linejoin="round" stroke-width="0.75"/><line x1="28.58" y1="6.89" x2="28.58" y2="9.85" fill="none" stroke="#1d1d1b" stroke-linecap="round" stroke-linejoin="round" stroke-width="0.75"/><line x1="30.95" y1="6.89" x2="30.95" y2="9.85" fill="none" stroke="#1d1d1b" stroke-linecap="round" stroke-linejoin="round" stroke-width="0.75"/><polyline points="21.05 1.42 16.36 9.13 19.74 10.94 15.47 12.87 29.76 39.76 29.76 45.87" fill="none" stroke="#1d1d1b" stroke-linecap="round" stroke-linejoin="round" stroke-width="2"/><polyline points="6.59 10.64 13.36 31.76 13.36 58.11" fill="none" stroke="#1d1d1b" stroke-linecap="round" stroke-linejoin="round" stroke-width="2"/><polyline points="52.94 10.64 46.17 31.76 46.17 58.11" fill="none" stroke="#1d1d1b" stroke-linecap="round" stroke-linejoin="round" stroke-width="2"/><path d="M54.88,25.51c-.1-12.2-2-14.87-2-14.87L38.48,1.42H21.05L6.6,10.64S4.75,13.31,4.65,25.51s0,32.6,0,32.6h8.71V55.43l6.78-.55a10.59,10.59,0,0,0,9.62-9h0a10.6,10.6,0,0,0,9.62,9l6.79.55v2.68h8.71S55,37.71,54.88,25.51Z" fill="none" stroke="#1d1d1b" stroke-linecap="round" stroke-linejoin="round" stroke-width="2"/><polyline points="38.48 1.42 43.17 9.13 39.79 10.94 44.06 12.87 29.76 39.76 29.76 45.87" fill="none" stroke="#1d1d1b" stroke-linecap="round" stroke-linejoin="round" stroke-width="2"/><polyline points="38.48 1.42 29.76 39.76 21.05 1.42" fill="none" stroke="#1d1d1b" stroke-linecap="round" stroke-linejoin="round" stroke-width="2"/><line x1="22.4" y1="6.89" x2="37.13" y2="6.89" fill="none" stroke="#1d1d1b" stroke-linecap="round" stroke-linejoin="round" stroke-width="2"/></svg>