<?xml version="1.0" encoding="UTF-8"?>
<svg id="Layer_1" xmlns="http://www.w3.org/2000/svg" version="1.1" viewBox="0 0 59.5 59.5">
  <!-- Generator: Adobe Illustrator 29.3.1, SVG Export Plug-In . SVG Version: 2.1.0 Build 151)  -->
  <defs>
    <style>
      .st0 {
        stroke-width: .6px;
      }

      .st0, .st1, .st2 {
        stroke: #fff;
      }

      .st0, .st1, .st2, .st3, .st4 {
        fill: none;
        stroke-linecap: round;
        stroke-linejoin: round;
      }

      .st1 {
        stroke-width: 1.6px;
      }

      .st2 {
        stroke-width: 1.4666667px;
      }

      .st5 {
        opacity: .2;
      }

      .st3 {
        stroke-width: 11.9165745px;
      }

      .st3, .st4 {
        stroke: #585830;
      }

      .st4 {
        stroke-width: 7.3332767px;
      }
    </style>
  </defs>
  <g class="st5">
    <line class="st0" x1="29.75" y1="20.6043663" x2="29.75" y2="23.8683662"/>
    <line class="st0" x1="28.7339993" y1="20.6043663" x2="28.7339993" y2="22.292366"/>
    <line class="st0" x1="30.7579994" y1="20.6043663" x2="30.7579994" y2="22.292366"/>
    <polygon class="st1" points="22.0535069 8.0348959 29.75 14.2195778 20.129385 18.0678234 22.0535069 8.0348959"/>
    <path class="st1" d="M21.2288837,11.6082678l-6.6101627,2.8009167c-.9010601.3818054-1.4699306,1.2833967-1.4266396,2.2610521l1.3807335,31.1815701c.1101885,2.4884224,2.1478386,4.455822,4.6385956,4.478672l10.5385895.0966835"/>
    <polyline class="st1" points="25.5783195 15.9030752 26.9292278 20.129385 25.2799797 51.8774147"/>
    <polygon class="st1" points="37.4464912 8.0348959 29.75 14.2195778 39.3706169 18.0678234 37.4464912 8.0348959"/>
    <path class="st1" d="M38.2711182,11.6082678l6.6101646,2.8009167c.901062.3818054,1.4699326,1.2833967,1.4266396,2.2610521l-1.3807335,31.1815701c-.1101875,2.4884224-2.1478386,4.455822-4.6385956,4.478672l-10.5385895.0966835"/>
    <polyline class="st1" points="34.518364 16.1671677 32.5707741 20.129385 34.2200203 51.8774147"/>
    <path class="st1" d="M37.4464912,8.0348959s-1.64925-.9620614-7.6964931-.9620614-7.6964931.9620614-7.6964931.9620614"/>
    <line class="st1" x1="25.6486607" y1="10.9210806" x2="33.8731194" y2="10.9210806"/>
    <line class="st1" x1="26.9292278" y1="20.129385" x2="32.5707741" y2="20.129385"/>
  </g>
  <g>
    <path class="st4" d="M45.3404312,32.5845985s-6.980072,7.9022102-15.5904312,7.9022102-15.5904303-7.9022064-15.5904303-7.9022064c0,0,6.980073-7.9022083,15.5904303-7.9022083s15.5904312,7.9022083,15.5904312,7.9022045Z"/>
    <circle class="st3" cx="29.75" cy="32.5845985" r="4.9889374"/>
  </g>
  <g>
    <path class="st2" d="M45.3405495,32.584568s-6.9801292,7.9022713-15.5905514,7.9022713-15.5905514-7.9022675-15.5905514-7.9022675c0,0,6.9801273-7.9022694,15.5905514-7.9022694s15.5905514,7.9022694,15.5905514,7.9022655Z"/>
    <circle class="st2" cx="29.75" cy="32.584568" r="4.1574478"/>
    <circle class="st2" cx="29.7499995" cy="32.5846295" r="7.9022694"/>
  </g>
</svg>